<svg xmlns="http://www.w3.org/2000/svg" width="48" height="47.874" viewBox="0 0 48 47.874">
  <path id="map" d="M47.56,47.7a1,1,0,0,1-.931.1l-14.64-5.84L16.351,47.81a.274.274,0,0,1-.028,0,1,1,0,0,1-.321.059h0a1,1,0,0,1-.336-.065c-.011,0-.023,0-.034-.007l-15-5.984A1,1,0,0,1,0,40.892V1A1,1,0,0,1,1.372.072l14.64,5.84L31.648.064A.905.905,0,0,1,31.8.04l.017,0A.928.928,0,0,1,32,0a.953.953,0,0,1,.184.037l.022,0a.854.854,0,0,1,.165.03l15,5.984A1,1,0,0,1,48,6.982V46.876A1,1,0,0,1,47.56,47.7ZM15,7.658,2,2.471V40.217L15,45.4Zm2,37.779L31,40.2V2.437L17,7.673ZM46,7.657,33,2.471V40.217L46,45.4Z" transform="translate(0 0)" fill="#212121" fill-rule="evenodd"/>
</svg>
