<svg xmlns="http://www.w3.org/2000/svg" width="47.887" height="47.548" viewBox="0 0 47.887 47.548">
  <path id="plane" d="M44.62,11.044l-.009.007s0,.007-.007.01L33.981,21.129,37.875,42.4a.982.982,0,0,1-.275.878l-3.991,3.963a1,1,0,0,1-1.641-.358L25.5,29.439l-9.551,8.625v5.507a.988.988,0,0,1-.292.7l-2.993,2.972a1,1,0,0,1-1.64-.352L8.234,39.515.64,36.787a.988.988,0,0,1-.333-1.664l3.278-3.186a1,1,0,0,1,.672-.259H9.925L18.237,22.4.626,15.762a.987.987,0,0,1-.352-1.627l3.99-3.963A.99.99,0,0,1,5.148,9.9l21.419,3.867L36.7,3.214C41.386-1.436,45.731,0,46.785,1.049a5.126,5.126,0,0,1,1.077,3.633C47.794,6.183,47.178,8.505,44.62,11.044Zm.749-8.6C44.937,2.062,41.9.857,38.132,4.6L27.64,15.52a.984.984,0,0,1-.9.29L5.306,11.939l-2.53,2.515,17.512,6.6a.987.987,0,0,1,.4,1.579L11.127,33.322a1,1,0,0,1-.75.338H4.644L2.871,35.481l6.022,2.163a.986.986,0,0,1,1,.624l2.448,6.486,1.606-1.593V37.626a.988.988,0,0,1,.326-.734l10.974-9.908a1.017,1.017,0,0,1,.908-.23,1,1,0,0,1,.7.62L33.3,44.748l2.519-2.5-3.9-21.288a.983.983,0,0,1,.292-.894l11-10.428C46.977,5.9,45.765,2.883,45.369,2.445Z" transform="translate(0.018 0.014)" fill="#212121" fill-rule="evenodd"/>
</svg>
